<?xml version="1.0" encoding="UTF-8"?>
<svg data-name="Layer 1" version="1.1" viewBox="0 0 1144 652.52" xmlns="http://www.w3.org/2000/svg" xmlns:cc="http://creativecommons.org/ns#" xmlns:dc="http://purl.org/dc/elements/1.1/" xmlns:rdf="http://www.w3.org/1999/02/22-rdf-syntax-ns#" xmlns:xlink="http://www.w3.org/1999/xlink">
<metadata>
<rdf:RDF>
<cc:Work rdf:about="">
<dc:format>image/svg+xml</dc:format>
<dc:type rdf:resource="http://purl.org/dc/dcmitype/StillImage"/>
<dc:title>winners</dc:title>
</cc:Work>
</rdf:RDF>
</metadata>
<title>winner</title>
<path transform="translate(-28 -123.74)" d="m777 372.81-0.68 9.13c-0.1 1.24-2.47 30.76-19.95 65.26-15 29.59-44.19 68.13-99.3 89.79q-6.45 2.55-13.39 4.76l-5.16-16.2a189.43 189.43 0 0 0 37.22-16.28c28.09-16.22 49.93-39.37 65.16-69.16a185.77 185.77 0 0 0 17.1-50.3h-62.7v-17z" fill="#B95C5C"/>
<path transform="translate(-28 -123.74)" d="m650.32 537c55.1-21.66 84.3-60.19 99.29-89.78 17.48-34.5 19.86-64 19.95-65.26l0.68-9.13h7l-0.68 9.13c-0.09 1.24-2.47 30.76-19.95 65.26-15 29.59-44.19 68.12-99.29 89.78q-6.45 2.55-13.4 4.77l-0.68-2.13q3.62-1.29 7.08-2.64z" fill="#fff" opacity=".4"/>
<path transform="translate(-28 -123.74)" d="M540,525.55l-5.16,16.2q-6.95-2.22-13.4-4.77c-55.1-21.66-84.3-60.19-99.29-89.78-17.48-34.5-19.86-64-19.95-65.26l-.68-9.13h81.66v17H420.47a185.88,185.88,0,0,0,17.15,50.3c15.23,29.79,37.06,52.94,65.15,69.15A189,189,0,0,0,540,525.55Z" fill="#B95C5C"/>
<path transform="translate(-28 -123.74)" d="m528.18 537c-55.1-21.66-84.3-60.19-99.29-89.78-17.48-34.5-19.86-64-19.95-65.26l-0.68-9.13h-7l0.68 9.13c0.09 1.24 2.47 30.76 19.95 65.26 15 29.59 44.19 68.12 99.29 89.78q6.45 2.55 13.4 4.77l0.68-2.13q-3.61-1.29-7.08-2.64z" fill="#fff" opacity=".4"/>
<path transform="translate(-28 -123.74)" d="M683.59,682.15v91.67H494.92V682.15l6-8c61.14-21.7,73.53-78.29,76-100.68a92.05,92.05,0,0,0,.63-9.32h23.33a92.05,92.05,0,0,0,.63,9.32c2.51,22.39,14.9,79,76,100.68Z" fill="#B95C5C"/>
<rect x="466.92" y="558.41" width="188.67" height="11.5" opacity=".1"/>
<path transform="translate(-28 -123.74)" d="M510.92,674.15c61.14-21.7,73.53-78.29,76-100.68a92.05,92.05,0,0,0,.63-9.32h-10a92.05,92.05,0,0,1-.63,9.32c-2.51,22.39-14.9,79-76,100.68l-6,8v91.67h10V682.15Z" fill="#fff" opacity=".1"/>
<path transform="translate(-28 -123.74)" d="m466.26 372.81h16.92v17h-15.42q-0.91-8.4-1.5-17z" opacity=".1"/>
<path transform="translate(-28 -123.74)" d="m540 525.55-5.16 16.2q-6.95-2.22-13.4-4.77a179.15 179.15 0 0 1-18.67-27.72 189 189 0 0 0 37.23 16.29z" opacity=".1"/>
<path transform="translate(-28 -123.74)" d="M638.51,525.55a189.43,189.43,0,0,0,37.22-16.28A179.86,179.86,0,0,1,657.06,537q-6.45,2.55-13.39,4.76Z" opacity=".1"/>
<path transform="translate(-28 -123.74)" d="M712.24,372.81q-.59,8.6-1.5,17H695.33v-17Z" opacity=".1"/>
<path transform="translate(-28 -123.74)" d="m601.55 573.47a64.64 64.64 0 0 1-24.59 0 92.05 92.05 0 0 0 0.63-9.32h23.33a92.05 92.05 0 0 0 0.63 9.32z" opacity=".1"/>
<path transform="translate(-28 -123.74)" d="M468.26,344.65c.43,126.06,54.43,228,121,228s120.56-101.94,121-228Z" fill="#B95C5C"/>
<path transform="translate(-28 -123.74)" d="M489.76,344.65h-21.5c.43,126.06,54.43,228,121,228a65.35,65.35,0,0,0,10.75-.91C538.47,561.46,490.17,463.85,489.76,344.65Z" fill="#fff" opacity=".1"/>
<rect x="497.09" y="593.5" width="128.33" height="33" fill="#092B36" opacity=".4"/>
<polygon points="503.09 598 625.42 598 625.42 593.5 497.09 593.5 497.09 626.5 503.09 626.5" fill="#fff" opacity=".1"/>
</svg>
